<svg xmlns="http://www.w3.org/2000/svg" viewBox="0 0 100 73"><g clip-path="url(#clip0)"><path d="M87.7 9C75.4-0.3 63.6-0.1 63.6-0.1L62.4 1.3C77 5.8 83.8 12.3 83.8 12.3 63.4 1 39.5 1 19.8 9.8 16.6 11.2 14.7 12.3 14.7 12.3 14.7 12.3 21.8 5.5 37.3 1L36.4-0.1C36.4-0.1 24.7-0.3 12.3 9 12.3 9 0 31.5 0 59.3 0 59.3 7.2 71.8 26.1 72.4 26.1 72.4 29.3 68.5 31.9 65.2 21 62 16.9 55.1 16.9 55.1 18.1 55.9 20.2 57.1 20.4 57.2 34.8 65.4 55.4 68 73.9 60.2 76.8 59.1 80.2 57.5 83.7 55.1 83.7 55.1 79.4 62.2 68.2 65.4 70.8 68.7 73.9 72.4 73.9 72.4 92.8 71.8 100.1 59.3 100.1 59.3 100.1 31.5 87.7 9 87.7 9ZM34 51.3C29.2 51.3 25.2 47 25.2 41.7 25.2 36.4 29.1 32.1 34 32.1 38.9 32.1 42.8 36.4 42.7 41.7 42.7 47 38.9 51.3 34 51.3ZM65.3 51.3C60.5 51.3 56.5 47 56.5 41.7 56.5 36.4 60.4 32.1 65.3 32.1 70.2 32.1 74 36.4 74 41.7 74 47 70.2 51.3 65.3 51.3Z" fill='white'></path></g><defs><clipPath><rect width="100" height="72.2"></rect></clipPath></defs></svg>