<svg version="1.1" xmlns="http://www.w3.org/2000/svg" xmlns:xlink="http://www.w3.org/1999/xlink" viewBox="0 0 24 24"><g id="ic_instagram"><path id="instagram" d="M23.913,18.045 C23.848,19.464 23.613,20.229 23.416,20.737 C22.942,21.965 21.966,22.942 20.736,23.416 C20.229,23.613 19.464,23.848 18.044,23.913 C16.471,23.985 15.999,24.000 12.000,24.000 C8.001,24.000 7.529,23.985 5.955,23.913 C4.535,23.848 3.771,23.613 3.259,23.414 C2.652,23.191 2.094,22.827 1.637,22.357 C1.173,21.907 0.810,21.348 0.584,20.736 C0.387,20.228 0.152,19.463 0.087,18.045 C0.015,16.463 -0.000,15.989 -0.000,12.000 C-0.000,8.011 0.015,7.537 0.087,5.955 C0.152,4.536 0.387,3.771 0.585,3.259 C0.810,2.652 1.173,2.093 1.643,1.637 C2.094,1.173 2.652,0.809 3.264,0.584 C3.771,0.387 4.536,0.152 5.955,0.087 C7.530,0.015 8.002,-0.000 12.000,-0.000 C15.989,-0.000 16.463,0.015 18.045,0.087 C19.463,0.152 20.228,0.387 20.741,0.586 C21.347,0.809 21.906,1.173 22.363,1.643 C22.827,2.093 23.190,2.652 23.416,3.264 C23.613,3.770 23.848,4.534 23.913,5.955 C23.985,7.528 24.000,8.001 24.000,12.000 C24.000,15.999 23.985,16.471 23.913,18.045 zM12.000,4.012 C7.595,4.012 4.011,7.595 4.011,12.000 C4.011,16.405 7.595,19.988 12.000,19.988 C16.405,19.988 19.989,16.405 19.989,12.000 C19.989,7.595 16.405,4.012 12.000,4.012 zM20.002,1.908 C18.850,1.908 17.913,2.845 17.913,3.997 C17.913,5.149 18.850,6.087 20.002,6.087 C21.154,6.087 22.091,5.149 22.092,3.997 C22.092,2.845 21.155,1.908 20.002,1.908 zM12.000,16.707 C9.405,16.707 7.293,14.595 7.293,12.000 C7.293,9.404 9.405,7.293 12.000,7.293 C14.595,7.293 16.707,9.404 16.707,12.000 C16.707,14.595 14.595,16.707 12.000,16.707 z" fill='white'></path></g></svg>