<svg version="1.1" xmlns="http://www.w3.org/2000/svg" xmlns:xlink="http://www.w3.org/1999/xlink" viewBox="0 0 28 27"><g id="ic_linkedin"><path id="linkedin" d="M27.093,14.571 C27.093,14.571 27.093,26.427 27.093,26.427 C27.093,26.631 26.929,26.796 26.727,26.795 C26.727,26.795 21.920,26.794 21.920,26.794 C21.717,26.794 21.553,26.629 21.553,26.426 C21.553,26.426 21.553,16.483 21.553,16.483 C21.553,15.623 21.206,14.845 20.644,14.282 C20.075,13.710 19.286,13.360 18.415,13.370 C16.709,13.389 15.349,14.811 15.349,16.522 C15.349,16.522 15.349,26.425 15.349,26.425 C15.349,26.628 15.185,26.793 14.982,26.793 C14.982,26.793 10.187,26.792 10.187,26.792 C9.984,26.791 9.820,26.627 9.820,26.424 C9.820,26.424 9.820,9.283 9.820,9.283 C9.820,9.080 9.984,8.915 10.187,8.915 C10.187,8.915 14.880,8.915 14.880,8.915 C15.083,8.915 15.247,9.080 15.247,9.283 C15.247,9.283 15.247,11.260 15.247,11.260 C15.247,11.259 15.266,11.262 15.297,11.266 C15.388,11.102 15.487,10.942 15.593,10.789 C16.571,9.380 18.198,8.459 20.038,8.459 C20.038,8.459 21.003,8.459 21.003,8.459 C24.367,8.459 27.094,11.195 27.094,14.571 C27.094,14.571 27.093,14.571 27.093,14.571 zM3.553,6.453 C1.844,6.487 0.343,5.056 0.344,3.230 C0.344,1.458 1.797,0.013 3.574,0.014 C5.330,0.016 6.778,1.471 6.774,3.242 C6.770,5.096 5.237,6.493 3.553,6.453 zM1.678,8.916 C1.678,8.916 5.439,8.916 5.439,8.916 C5.928,8.916 6.323,9.312 6.323,9.802 C6.323,9.802 6.323,25.905 6.323,25.905 C6.323,26.395 5.928,26.791 5.439,26.791 C5.439,26.791 1.678,26.791 1.678,26.791 C1.190,26.791 0.794,26.395 0.794,25.905 C0.794,25.905 0.794,9.802 0.794,9.802 C0.794,9.312 1.190,8.916 1.678,8.916 z" fill='white'></path></g></svg>