<svg version="1.1" xmlns="http://www.w3.org/2000/svg" xmlns:xlink="http://www.w3.org/1999/xlink" viewBox="0 0 30 22"><g id="ic_email"><path id="mail-icon" d="M28.901,3.904 C28.841,3.635 28.752,3.375 28.638,3.127 C28.524,2.880 28.384,2.644 28.223,2.424 C27.898,1.983 27.484,1.602 27.005,1.305 C26.766,1.156 26.510,1.027 26.240,0.922 C25.971,0.817 25.689,0.736 25.395,0.680 C25.103,0.625 24.800,0.596 24.489,0.596 C24.489,0.596 24.489,0.596 24.489,0.596 L4.673,0.596 C4.673,0.596 4.673,0.596 4.673,0.596 C4.363,0.596 4.059,0.625 3.767,0.680 C3.474,0.736 3.191,0.817 2.922,0.922 C2.653,1.027 2.396,1.156 2.157,1.305 C1.678,1.602 1.264,1.983 0.940,2.424 C0.778,2.644 0.638,2.880 0.524,3.127 C0.410,3.375 0.321,3.635 0.261,3.904 C0.201,4.174 0.169,4.453 0.169,4.738 C0.169,4.738 0.169,4.738 0.169,4.738 L0.169,9.915 L0.169,17.469 C0.169,17.469 0.169,17.469 0.169,17.469 C0.169,17.754 0.201,18.033 0.261,18.303 C0.321,18.572 0.410,18.832 0.524,19.079 C0.638,19.327 0.778,19.563 0.940,19.783 C1.264,20.224 1.678,20.604 2.157,20.902 C2.396,21.051 2.653,21.180 2.922,21.285 C3.191,21.389 3.474,21.471 3.767,21.526 C4.059,21.582 4.363,21.611 4.673,21.611 C4.673,21.611 4.673,21.611 4.673,21.611 L24.489,21.611 C24.489,21.611 24.489,21.611 24.489,21.611 C24.800,21.611 25.103,21.582 25.395,21.526 C25.689,21.471 25.971,21.389 26.240,21.285 C26.510,21.180 26.766,21.051 27.005,20.902 C27.484,20.604 27.898,20.224 28.223,19.783 C28.384,19.563 28.524,19.327 28.638,19.079 C28.752,18.832 28.841,18.572 28.901,18.303 C28.961,18.033 28.993,17.754 28.993,17.469 C28.993,17.469 28.993,17.469 28.993,17.469 L28.993,12.292 L28.993,4.738 C28.993,4.738 28.993,4.738 28.993,4.738 C28.993,4.453 28.961,4.174 28.901,3.904 zM24.757,6.538 C24.757,6.538 15.828,13.361 15.828,13.361 C15.507,13.605 15.090,13.742 14.661,13.742 C14.661,13.742 14.569,13.740 14.569,13.740 C14.537,13.742 14.506,13.743 14.475,13.743 C14.073,13.743 13.656,13.605 13.329,13.357 C13.329,13.357 4.410,6.542 4.410,6.542 C3.620,5.942 3.510,4.872 4.156,4.150 C4.804,3.430 5.969,3.328 6.752,3.922 C6.752,3.922 14.581,9.916 14.581,9.916 C14.581,9.916 22.412,3.920 22.412,3.920 C23.196,3.328 24.359,3.430 25.005,4.150 C25.652,4.872 25.541,5.942 24.757,6.538 z" fill='white'></path></g></svg>