<svg xmlns="http://www.w3.org/2000/svg" viewBox="0 0 90 90"><g clip-path="url(#clip0)"><path d="M0 43.7C0 18.6 19.7 0 45 0 70.3 0 90 18.6 90 43.7 90 68.7 70.3 87.3 45 87.3 40.4 87.3 36.1 86.7 32 85.6 31.2 85.4 30.3 85.4 29.6 85.8L20.6 89.7C18.3 90.7 15.7 89.1 15.6 86.5L15.3 78.5C15.3 77.5 14.9 76.6 14.1 75.9 5.4 68.1 0 56.8 0 43.7ZM31.2 35.4L18 56.4C16.7 58.4 19.2 60.7 21.1 59.3L35.3 48.5C36.2 47.7 37.6 47.7 38.5 48.5L49 56.4C52.2 58.7 56.7 57.9 58.8 54.6L72 33.6C73.3 31.6 70.8 29.3 68.9 30.7L54.7 41.5C53.8 42.3 52.4 42.3 51.5 41.5L41 33.6C37.8 31.3 33.3 32.1 31.2 35.4Z" fill='white' style="clip-rule:evenodd;fill-rule:evenodd"></path></g></svg>