<svg viewBox="0 0 150 150" fill="none" xmlns="http://www.w3.org/2000/svg"><g fill-rule="nonzero"><path fill-rule="evenodd" clip-rule="evenodd" d="M75.8655 33H75.8613C75.7839 33 75.7108 33 75.6412 33.0007C75.0871 33.0063 74.1759 33.0155 74.0943 33.0162C72.0967 33.0162 68.0987 33.2974 63.8047 35.1874C61.3494 36.2674 59.1416 37.7271 57.241 39.5271C54.9756 41.6717 53.1306 44.3154 51.7574 47.3867C49.7464 51.8832 50.2238 59.458 50.607 65.5449L50.6084 65.5548C50.6492 66.2066 50.6928 66.8872 50.7322 67.551C50.4369 67.686 49.9587 67.8287 49.2535 67.8287C48.1194 67.8287 46.7701 67.4673 45.245 66.7543C44.7964 66.5462 44.2838 66.4407 43.7192 66.4407C42.8115 66.4407 41.8538 66.7072 41.0234 67.1938C39.9786 67.8055 39.3036 68.6696 39.1207 69.628C38.9998 70.2622 39.0054 71.5152 40.4018 72.7858C41.1697 73.4854 42.2975 74.1301 43.7537 74.7039C44.1355 74.8536 44.589 74.9971 45.0692 75.149C46.7356 75.677 49.2577 76.4751 49.9159 78.0184C50.2491 78.801 50.1057 79.8311 49.4905 81.0756C49.4743 81.1094 49.4581 81.1431 49.4434 81.1776C49.2894 81.5355 47.8557 84.7741 44.9145 88.1899C43.2432 90.1319 41.4024 91.7554 39.4456 93.0161C37.0578 94.5553 34.4738 95.5607 31.7667 96.0058C30.7029 96.1795 29.9435 97.1238 30.0033 98.1975C30.0216 98.5069 30.094 98.8148 30.2206 99.1136C30.2213 99.1158 30.2227 99.1172 30.2234 99.1193C30.653 100.122 31.65 100.973 33.27 101.724C35.25 102.641 38.2109 103.413 42.0704 104.017C42.2651 104.386 42.4676 105.316 42.6083 105.952C42.7552 106.629 42.9078 107.324 43.1258 108.062C43.3613 108.863 43.9716 109.819 45.5396 109.819C46.1337 109.819 46.8172 109.685 47.6089 109.533C48.7677 109.306 50.3525 108.997 52.3311 108.997C53.428 108.997 54.5642 109.093 55.7082 109.282C57.9132 109.649 59.8145 110.987 62.0146 112.538C65.2342 114.808 68.8785 117.377 74.4466 117.377C74.5984 117.377 74.751 117.372 74.9015 117.361C75.0857 117.37 75.3135 117.377 75.554 117.377C81.1235 117.377 84.7671 114.807 87.9832 112.54L87.9881 112.535C90.1882 110.986 92.0873 109.649 94.2916 109.283C95.4349 109.094 96.5719 108.998 97.6687 108.998C99.5588 108.998 101.055 109.238 102.391 109.497C103.263 109.668 103.941 109.751 104.46 109.751L104.511 109.752H104.564C105.71 109.752 106.553 109.124 106.875 108.026C107.089 107.303 107.241 106.624 107.392 105.936C107.522 105.34 107.732 104.384 107.927 104.01C111.79 103.406 114.749 102.636 116.73 101.719C118.346 100.971 119.342 100.121 119.774 99.1221C119.904 98.8226 119.98 98.5125 119.997 98.1968C120.058 97.1252 119.297 96.1788 118.233 96.0051C106.201 94.0279 100.781 81.7014 100.557 81.1776C100.542 81.1431 100.526 81.1087 100.509 81.0756C99.8941 79.8304 99.7521 78.8017 100.086 78.0177C100.742 76.4758 103.263 75.6777 104.931 75.1497C105.414 74.9978 105.869 74.8536 106.248 74.7046C107.889 74.0584 109.063 73.3567 109.837 72.5601C110.762 71.6108 110.942 70.701 110.93 70.1054C110.902 68.6647 109.798 67.385 108.041 66.7578C107.448 66.5132 106.771 66.3838 106.082 66.3838C105.613 66.3838 104.919 66.4478 104.261 66.7543C102.854 67.411 101.593 67.7703 100.51 67.8217C99.9342 67.7928 99.5306 67.6684 99.2691 67.5496C99.3021 66.9878 99.3387 66.4105 99.3759 65.8086L99.3914 65.5513C99.7767 59.4608 100.256 51.8804 98.2439 47.3804C96.8651 44.2986 95.013 41.6478 92.7384 39.4983C90.8308 37.6976 88.6153 36.2372 86.1515 35.1586C81.8632 33.2805 77.8659 33 75.8655 33Z" fill="white"></path></g></svg>