<svg viewBox="0 0 78 90" xmlns="http://www.w3.org/2000/svg"><path d="M60.346 41.713a31.251 31.251 0 0 0-1.18-.536c-.695-12.8-7.69-20.128-19.434-20.203h-.16c-7.024 0-12.866 2.998-16.462 8.454l6.46 4.431c2.685-4.075 6.901-4.944 10.006-4.944h.107c3.867.025 6.785 1.149 8.674 3.342 1.374 1.596 2.293 3.802 2.748 6.585-3.428-.582-7.136-.761-11.1-.534-11.165.643-18.344 7.155-17.861 16.204.244 4.59 2.53 8.539 6.438 11.118 3.303 2.18 7.558 3.247 11.98 3.006 5.84-.32 10.42-2.548 13.617-6.622 2.427-3.094 3.962-7.103 4.64-12.155 2.783 1.68 4.845 3.89 5.984 6.547 1.937 4.516 2.05 11.938-4.006 17.988-5.305 5.301-11.683 7.594-21.322 7.665-10.692-.08-18.778-3.508-24.035-10.192C10.517 65.61 7.972 56.57 7.877 45c.095-11.57 2.64-20.61 7.563-26.867C20.697 11.448 28.783 8.02 39.475 7.94c10.77.08 18.996 3.525 24.455 10.24 2.677 3.294 4.694 7.436 6.025 12.264l7.569-2.019c-1.613-5.944-4.15-11.066-7.603-15.313C62.923 4.503 52.688.09 39.501 0h-.052c-13.16.091-23.28 4.52-30.08 13.162C3.32 20.853.2 31.554.095 44.968v.064C.2 58.446 3.32 69.147 9.37 76.838 16.168 85.48 26.288 89.909 39.449 90h.052c11.7-.081 19.948-3.144 26.742-9.932 8.889-8.88 8.621-20.012 5.691-26.846-2.102-4.9-6.109-8.88-11.588-11.509ZM40.144 60.706c-4.894.276-9.978-1.92-10.229-6.625-.185-3.489 2.483-7.381 10.53-7.845.92-.053 1.825-.08 2.713-.08 2.923 0 5.657.285 8.143.828-.927 11.58-6.366 13.46-11.157 13.722Z" fill='white'></path></svg>