<svg version="1.1" xmlns="http://www.w3.org/2000/svg" xmlns:xlink="http://www.w3.org/1999/xlink" viewBox="0 0 31 25"><g id="ic_twitter"><path id="twitter" d="M0.224,21.695 C3.001,23.355 6.294,24.315 9.826,24.315 C19.745,24.315 27.786,16.738 27.786,7.392 C27.786,7.158 27.782,6.927 27.771,6.696 C28.131,6.430 30.350,4.754 30.894,3.676 C30.894,3.676 29.091,4.382 27.328,4.548 C27.324,4.548 27.320,4.549 27.317,4.549 C27.317,4.549 27.320,4.547 27.326,4.543 C27.488,4.441 29.760,2.984 30.068,1.247 C30.068,1.247 28.794,1.888 27.009,2.449 C26.713,2.542 26.404,2.633 26.085,2.717 C24.935,1.560 23.300,0.838 21.485,0.838 C18.003,0.838 15.182,3.495 15.182,6.773 C15.182,7.236 15.238,7.686 15.345,8.118 C14.859,8.100 7.450,7.708 2.410,1.957 C2.410,1.957 -0.602,5.832 4.205,9.816 C4.205,9.816 2.744,9.761 1.483,9.052 C1.483,9.052 1.020,13.746 6.464,14.946 C6.464,14.946 5.393,15.328 3.684,15.056 C3.684,15.056 4.639,18.849 9.477,19.203 C9.477,19.203 5.652,22.459 0.222,21.695 C0.222,21.695 0.224,21.695 0.224,21.695 z" fill='white'></path></g></svg>